HIERARCHY
ROOT Hips
{
 OFFSET 0.000000 0.000000 0.000000
 CHANNELS 6 Xposition Yposition Zposition Yrotation Xrotation Zrotation
 JOINT Chest
 {
  OFFSET 0.000000 10.761051 -1.195673
  CHANNELS 3 Yrotation Xrotation Zrotation
  JOINT Chest2
  {
   OFFSET 0.000000 10.364821 0.000000
   CHANNELS 3 Yrotation Xrotation Zrotation
   JOINT Chest3
   {
    OFFSET 0.000000 9.471646 0.000000
    CHANNELS 3 Yrotation Xrotation Zrotation
    JOINT Chest4
    {
     OFFSET 0.000000 9.461061 0.000000
     CHANNELS 3 Yrotation Xrotation Zrotation
     JOINT Neck
     {
      OFFSET 0.000000 12.801997 0.000000
      CHANNELS 3 Yrotation Xrotation Zrotation
      JOINT Head
      {
       OFFSET 0.000000 9.781966 0.000000
       CHANNELS 3 Yrotation Xrotation Zrotation
       End Site
       {
        OFFSET 0.000000 18.796749 0.000000
       }
      }
     }
     JOINT RightCollar
     {
      OFFSET -2.785061 7.176174 0.000000
      CHANNELS 3 Yrotation Xrotation Zrotation
      JOINT RightShoulder
      {
       OFFSET -13.854089 0.000000 0.000000
       CHANNELS 3 Yrotation Xrotation Zrotation
       JOINT RightElbow
       {
        OFFSET -29.342944 0.000000 0.000000
        CHANNELS 3 Yrotation Xrotation Zrotation
        JOINT RightWrist
        {
         OFFSET -27.709015 0.000000 0.000000
         CHANNELS 3 Yrotation Xrotation Zrotation
         End Site
         {
          OFFSET -21.012835 0.000000 0.000000
         }
        }
       }
      }
     }
     JOINT LeftCollar
     {
      OFFSET 2.785061 7.176174 0.000000
      CHANNELS 3 Yrotation Xrotation Zrotation
      JOINT LeftShoulder
      {
       OFFSET 13.854089 0.000000 0.000000
       CHANNELS 3 Yrotation Xrotation Zrotation
       JOINT LeftElbow
       {
        OFFSET 29.342944 0.000000 0.000000
        CHANNELS 3 Yrotation Xrotation Zrotation
        JOINT LeftWrist
        {
         OFFSET 27.709015 0.000000 0.000000
         CHANNELS 3 Yrotation Xrotation Zrotation
         End Site
         {
          OFFSET 21.012835 0.000000 0.000000
         }
        }
       }
      }
     }
    }
   }
  }
 }
 JOINT RightHip
 {
  OFFSET -8.847618 0.000000 0.000000
  CHANNELS 3 Yrotation Xrotation Zrotation
  JOINT RightKnee
  {
   OFFSET 0.000000 -46.696406 0.000000
   CHANNELS 3 Yrotation Xrotation Zrotation
   JOINT RightAnkle
   {
    OFFSET 0.000000 -45.821151 0.000000
    CHANNELS 3 Yrotation Xrotation Zrotation
    JOINT RightToe
    {
     OFFSET 0.000000 -7.519742 17.006186
     CHANNELS 3 Yrotation Xrotation Zrotation
     End Site
     {
      OFFSET 0.000000 -2.226805 9.501033
     }
    }
   }
  }
 }
 JOINT LeftHip
 {
  OFFSET 8.847618 0.000000 0.000000
  CHANNELS 3 Yrotation Xrotation Zrotation
  JOINT LeftKnee
  {
   OFFSET 0.000000 -46.696406 0.000000
   CHANNELS 3 Yrotation Xrotation Zrotation
   JOINT LeftAnkle
   {
    OFFSET 0.000000 -45.821151 0.000000
    CHANNELS 3 Yrotation Xrotation Zrotation
    JOINT LeftToe
    {
     OFFSET 0.000000 -7.519742 17.006186
     CHANNELS 3 Yrotation Xrotation Zrotation
     End Site
     {
      OFFSET 0.000000 -2.226805 9.501033
     }
    }
   }
  }
 }
}
MOTION
Frames: 5
Frame Time: 0.016667
21.296377 101.600217 -27.267700 -5.090244 5.472348 -1.034929 2.225479 -6.390131 -2.831467 1.074313 -8.678542 -1.238371 1.063446 -2.859122 -1.129191 0.706442 3.689733 -0.842829 -1.105625 12.993774 2.890303 -3.276494 -11.781645 5.934918 -1.821527 -0.662826 6.437418 40.954561 -47.121449 46.299808 111.026181 -48.058863 25.279608 12.892716 -4.788118 -4.991760 -2.597635 2.794789 -3.898960 10.790393 -9.144343 -75.419367 -5.800305 55.599928 -4.723734 2.435899 9.431392 -7.221577 -1.651057 -1.932295 1.113124 -0.937243 -0.071287 0.074364 -6.510654 -2.666083 0.834222 0.002494 -0.740448 -0.385946 0.297522 -3.420461 2.744622 -0.276690 3.066956 -0.149450 2.472567 -4.986094 -2.339321 -0.000350 -0.074717 0.537387
21.288534 101.598810 -27.248819 -5.093004 5.470157 -1.047198 2.238293 -6.410813 -2.859834 1.080734 -8.687920 -1.250816 1.069785 -2.868512 -1.140982 0.710226 3.682645 -0.851625 -1.117875 12.988651 2.883936 -3.297453 -11.790748 5.928121 -1.818882 -0.613242 6.417877 41.047538 -47.062071 46.241139 111.507903 -47.936642 25.101813 12.884323 -4.633580 -4.606150 -2.628294 2.825093 -3.862998 10.820137 -9.103278 -75.385377 -5.841516 55.617527 -4.765971 2.432400 9.431121 -7.229755 -1.662381 -1.919839 1.126749 -0.931078 -0.072059 0.075215 -6.501267 -2.672596 0.833948 0.002507 -0.743041 -0.386646 0.298090 -3.403465 2.762030 -0.269571 3.063145 -0.148263 2.467467 -4.996785 -2.346442 -0.000351 -0.074796 0.537927
21.284300 101.596699 -27.230227 -5.091058 5.464688 -1.057311 2.249428 -6.431663 -2.880827 1.086176 -8.697336 -1.259977 1.075154 -2.877937 -1.149589 0.713541 3.675541 -0.858033 -1.127535 12.996869 2.873077 -3.310839 -11.775520 5.910989 -1.820598 -0.553850 6.390830 41.138890 -47.016968 46.170757 112.061621 -47.599507 24.863447 12.827825 -4.370614 -4.094172 -2.655238 2.838721 -3.834565 10.831261 -9.056663 -75.361536 -5.856380 55.638449 -4.785725 2.427558 9.442862 -7.243935 -1.674426 -1.903667 1.136239 -0.925848 -0.074857 0.078759 -6.497934 -2.680794 0.832453 0.002505 -0.742408 -0.386606 0.311320 -3.381573 2.774866 -0.277277 3.051514 -0.147272 2.459120 -5.001024 -2.349977 -0.000356 -0.075973 0.537394
21.281476 101.593813 -27.212044 -5.081038 5.457472 -1.065696 2.248576 -6.444749 -2.893825 1.086117 -8.703196 -1.265756 1.075084 -2.883797 -1.155374 0.713010 3.671129 -0.862359 -1.128406 13.006361 2.857006 -3.305376 -11.758768 5.880330 -1.818989 -0.513777 6.360494 41.212347 -46.981867 46.110612 112.578599 -47.203989 24.658962 12.744553 -4.108878 -3.609058 -2.661049 2.835530 -3.807582 10.833520 -9.024563 -75.346943 -5.865446 55.660891 -4.802476 2.424762 9.450057 -7.256605 -1.687998 -1.883168 1.145098 -0.924085 -0.080419 0.081169 -6.494978 -2.687560 0.828976 0.002491 -0.742995 -0.384187 0.312618 -3.356853 2.787516 -0.280528 3.037817 -0.148126 2.449000 -5.004163 -2.356207 -0.000364 -0.077019 0.541070
21.280522 101.590653 -27.194660 -5.068517 5.447065 -1.073732 2.239888 -6.456804 -2.901772 1.082439 -8.708529 -1.269387 1.071435 -2.889124 -1.159377 0.709938 3.667129 -0.865367 -1.116467 13.020508 2.842356 -3.275925 -11.734087 5.846902 -1.807307 -0.486321 6.332824 41.260123 -46.934492 46.074868 112.909697 -46.996223 24.569395 12.467244 -4.060228 -3.407975 -2.661756 2.839909 -3.784278 10.847859 -9.011152 -75.336397 -5.883770 55.680950 -4.821161 2.425969 9.447537 -7.258357 -1.701303 -1.861280 1.151812 -0.927998 -0.082538 0.082134 -6.492443 -2.696246 0.830470 0.002484 -0.742874 -0.383119 0.313443 -3.331860 2.802944 -0.289700 3.029107 -0.152998 2.443204 -5.009381 -2.359239 -0.000370 -0.078144 0.542221
